<?xml version="1.0" encoding="UTF-8"?>
<svg width="1000" height="1500" xmlns="http://www.w3.org/2000/svg">
  <defs>
    <linearGradient id="textGrad" x1="0%" y1="0%" x2="100%" y2="100%">
      <stop offset="0%" style="stop-color:#8B5A60"/>
      <stop offset="50%" style="stop-color:#C4868B"/>
      <stop offset="100%" style="stop-color:#D4A0A4"/>
    </linearGradient>
    <linearGradient id="circleGrad" x1="0%" y1="0%" x2="100%" y2="100%">
      <stop offset="0%" style="stop-color:#C4868B;stop-opacity:0.15"/>
      <stop offset="100%" style="stop-color:#D4A0A4;stop-opacity:0.08"/>
    </linearGradient>
    <linearGradient id="lineGrad" x1="0%" y1="0%" x2="100%" y2="0%">
      <stop offset="0%" style="stop-color:#C4868B;stop-opacity:0"/>
      <stop offset="50%" style="stop-color:#C4868B;stop-opacity:0.4"/>
      <stop offset="100%" style="stop-color:#C4868B;stop-opacity:0"/>
    </linearGradient>
  </defs>

  <rect width="1000" height="1500" fill="#FFF8F5"/>

  <circle cx="820" cy="200" r="180" fill="url(#circleGrad)"/>
  <circle cx="150" cy="1300" r="220" fill="url(#circleGrad)"/>
  <circle cx="500" cy="750" r="300" fill="url(#circleGrad)" opacity="0.5"/>

  <circle cx="200" cy="300" r="4" fill="#C4868B" opacity="0.25"/>
  <circle cx="780" cy="450" r="3" fill="#C4868B" opacity="0.2"/>
  <circle cx="120" cy="700" r="5" fill="#D4A0A4" opacity="0.15"/>
  <circle cx="850" cy="900" r="4" fill="#C4868B" opacity="0.2"/>
  <circle cx="300" cy="1100" r="3" fill="#D4A0A4" opacity="0.25"/>

  <rect x="200" y="350" width="600" height="1" fill="url(#lineGrad)"/>

  <text x="500" y="310" text-anchor="middle" font-family="Georgia, serif" font-size="26" letter-spacing="8" fill="#9B7B80">SEELENSPRACHE READINGS</text>

  <text x="500" y="475.95" text-anchor="middle" font-family="Georgia, serif" font-size="82" font-weight="bold" fill="url(#textGrad)">Seelenkompass: Was</text>
  <text x="500" y="586.65" text-anchor="middle" font-family="Georgia, serif" font-size="82" font-weight="bold" fill="url(#textGrad)">die Sterne über</text>
  <text x="500" y="697.35" text-anchor="middle" font-family="Georgia, serif" font-size="82" font-weight="bold" fill="url(#textGrad)">eure Liebe verraten</text>

  <rect x="200" y="1000" width="600" height="1" fill="url(#lineGrad)"/>

  <text x="500" y="1018.8" text-anchor="middle" font-family="Georgia, serif" font-size="36" font-weight="normal" fill="#9B7B80">Eine persönliche Synastrie-Analyse für</text>
  <text x="500" y="1067.3999999999999" text-anchor="middle" font-family="Georgia, serif" font-size="36" font-weight="normal" fill="#9B7B80">Paare. Versteht eure Stärken,</text>
  <text x="500" y="1116" text-anchor="middle" font-family="Georgia, serif" font-size="36" font-weight="normal" fill="#9B7B80">Herausforderungen und euren gemeinsamen</text>
  <text x="500" y="1164.6" text-anchor="middle" font-family="Georgia, serif" font-size="36" font-weight="normal" fill="#9B7B80">Weg.</text>

  <g transform="translate(500, 1180)" fill="#C4868B" opacity="0.4">
    <path d="M0,-12 L2,-2 L12,0 L2,2 L0,12 L-2,2 L-12,0 L-2,-2 Z"/>
  </g>

  <text x="500" y="1340" text-anchor="middle" font-family="'Brush Script MT', 'Segoe Script', cursive" font-size="56" fill="url(#textGrad)">Seelensprache</text>
  <text x="500" y="1400" text-anchor="middle" font-family="Georgia, serif" font-size="24" fill="#9B7B80" letter-spacing="3">seelensprache-astro.de</text>
</svg>